<?xml version="1.0" encoding="UTF-8"?>
<svg id="_레이어_1" data-name="레이어_1" xmlns="http://www.w3.org/2000/svg" viewBox="0 0 854 387">
  <defs>
    <style>
      .cls-1, .cls-2, .cls-3, .cls-4 {
        stroke: #2f7604;
      }

      .cls-1, .cls-3 {
        fill: #2f7604;
      }

      .cls-1, .cls-4 {
        stroke-width: 4px;
      }

      .cls-2, .cls-5, .cls-3, .cls-6, .cls-7, .cls-8 {
        stroke-width: 5px;
      }

      .cls-2, .cls-6, .cls-8 {
        fill: none;
      }

      .cls-5 {
        fill: #ffcb32;
      }

      .cls-5, .cls-8 {
        stroke: #ffcb32;
      }

      .cls-4 {
        fill: #fff;
      }

      .cls-6, .cls-7 {
        stroke: #b6d084;
      }

      .cls-7 {
        fill: #b6d084;
      }
    </style>
  </defs>
  <polygon class="cls-8" points="692.5 333.5 690.5 335.5 690.5 338.5 689.5 339.5 689.5 340.5 688.5 341.5 688.5 342.5 687.5 343.5 687.5 344.5 686.5 345.5 686.5 346.5 679.5 353.5 678.5 353.5 676.5 355.5 673.5 355.5 671.5 357.5 671.5 359.5 672.5 360.5 673.5 360.5 674.5 361.5 675.5 361.5 676.5 362.5 677.5 362.5 678.5 363.5 679.5 363.5 681.5 365.5 682.5 365.5 685.5 368.5 685.5 369.5 686.5 370.5 686.5 371.5 687.5 372.5 687.5 373.5 688.5 374.5 688.5 376.5 689.5 377.5 689.5 379.5 690.5 380.5 690.5 382.5 692.5 384.5 695.5 384.5 696.5 383.5 696.5 381.5 697.5 380.5 697.5 377.5 698.5 376.5 698.5 374.5 699.5 373.5 699.5 372.5 700.5 371.5 700.5 370.5 702.5 368.5 702.5 367.5 706.5 363.5 707.5 363.5 708.5 362.5 712.5 362.5 714.5 360.5 714.5 357.5 712.5 355.5 710.5 355.5 709.5 354.5 708.5 354.5 700.5 346.5 700.5 345.5 699.5 344.5 699.5 343.5 698.5 342.5 698.5 341.5 697.5 340.5 697.5 338.5 696.5 337.5 696.5 335.5 695.5 334.5 695.5 333.5 692.5 333.5"/>
  <polygon class="cls-5" points="594.5 135.5 593.5 136.5 591.5 136.5 590.5 137.5 589.5 137.5 588.5 138.5 587.5 138.5 582.5 143.5 582.5 144.5 580.5 146.5 580.5 148.5 579.5 149.5 579.5 155.5 580.5 156.5 580.5 160.5 581.5 161.5 581.5 163.5 582.5 164.5 582.5 167.5 583.5 168.5 583.5 170.5 584.5 171.5 584.5 173.5 585.5 174.5 585.5 176.5 586.5 177.5 586.5 179.5 587.5 180.5 587.5 182.5 588.5 183.5 588.5 185.5 589.5 186.5 589.5 188.5 590.5 189.5 590.5 192.5 591.5 193.5 591.5 194.5 592.5 195.5 592.5 198.5 593.5 199.5 593.5 201.5 594.5 202.5 594.5 204.5 595.5 205.5 595.5 207.5 596.5 208.5 596.5 210.5 597.5 211.5 597.5 213.5 598.5 214.5 598.5 216.5 599.5 217.5 599.5 219.5 600.5 220.5 600.5 222.5 601.5 223.5 601.5 225.5 602.5 226.5 602.5 228.5 603.5 229.5 603.5 231.5 604.5 232.5 604.5 234.5 605.5 235.5 605.5 237.5 606.5 238.5 606.5 240.5 607.5 241.5 607.5 243.5 608.5 244.5 608.5 246.5 609.5 247.5 609.5 249.5 610.5 250.5 610.5 251.5 611.5 252.5 611.5 254.5 612.5 255.5 612.5 257.5 613.5 258.5 613.5 260.5 614.5 261.5 614.5 262.5 615.5 263.5 615.5 265.5 616.5 266.5 616.5 267.5 617.5 268.5 617.5 270.5 618.5 271.5 618.5 272.5 619.5 273.5 619.5 284.5 618.5 285.5 618.5 286.5 617.5 287.5 617.5 288.5 616.5 289.5 616.5 290.5 609.5 297.5 608.5 297.5 606.5 299.5 604.5 299.5 603.5 300.5 600.5 300.5 599.5 301.5 597.5 301.5 596.5 300.5 585.5 300.5 584.5 301.5 583.5 301.5 582.5 302.5 581.5 302.5 575.5 308.5 575.5 309.5 574.5 310.5 574.5 312.5 573.5 313.5 573.5 321.5 574.5 322.5 574.5 324.5 576.5 326.5 576.5 327.5 581.5 332.5 582.5 332.5 584.5 334.5 585.5 334.5 586.5 335.5 588.5 335.5 589.5 336.5 591.5 336.5 592.5 337.5 596.5 337.5 597.5 338.5 604.5 338.5 605.5 337.5 611.5 337.5 612.5 336.5 614.5 336.5 615.5 335.5 617.5 335.5 618.5 334.5 620.5 334.5 621.5 333.5 622.5 333.5 623.5 332.5 624.5 332.5 625.5 331.5 626.5 331.5 627.5 330.5 628.5 330.5 630.5 328.5 631.5 328.5 633.5 326.5 634.5 326.5 645.5 315.5 645.5 314.5 647.5 312.5 647.5 311.5 649.5 309.5 649.5 308.5 650.5 307.5 650.5 306.5 652.5 304.5 652.5 303.5 653.5 302.5 653.5 301.5 654.5 300.5 654.5 299.5 655.5 298.5 655.5 297.5 656.5 296.5 656.5 295.5 657.5 294.5 657.5 293.5 658.5 292.5 658.5 291.5 659.5 290.5 659.5 289.5 660.5 288.5 660.5 286.5 661.5 285.5 661.5 284.5 662.5 283.5 662.5 282.5 663.5 281.5 663.5 280.5 664.5 279.5 664.5 278.5 665.5 277.5 665.5 275.5 666.5 274.5 666.5 273.5 667.5 272.5 667.5 270.5 668.5 269.5 668.5 268.5 669.5 267.5 669.5 265.5 670.5 264.5 670.5 263.5 671.5 262.5 671.5 261.5 672.5 260.5 672.5 258.5 673.5 257.5 673.5 255.5 674.5 254.5 674.5 253.5 675.5 252.5 675.5 250.5 676.5 249.5 676.5 247.5 677.5 246.5 677.5 245.5 678.5 244.5 678.5 242.5 679.5 241.5 679.5 239.5 680.5 238.5 680.5 236.5 681.5 235.5 681.5 233.5 682.5 232.5 682.5 230.5 683.5 229.5 683.5 227.5 684.5 226.5 684.5 224.5 685.5 223.5 685.5 221.5 686.5 220.5 686.5 218.5 687.5 217.5 687.5 215.5 688.5 214.5 688.5 212.5 689.5 211.5 689.5 209.5 690.5 208.5 690.5 206.5 691.5 205.5 691.5 203.5 692.5 202.5 692.5 200.5 693.5 199.5 693.5 197.5 694.5 196.5 694.5 193.5 695.5 192.5 695.5 191.5 696.5 190.5 696.5 187.5 697.5 186.5 697.5 184.5 698.5 183.5 698.5 181.5 699.5 180.5 699.5 178.5 700.5 177.5 700.5 175.5 701.5 174.5 701.5 172.5 702.5 171.5 702.5 168.5 703.5 167.5 703.5 165.5 704.5 164.5 704.5 161.5 705.5 160.5 705.5 154.5 706.5 153.5 705.5 152.5 705.5 147.5 704.5 146.5 704.5 144.5 701.5 141.5 701.5 140.5 700.5 139.5 699.5 139.5 697.5 137.5 696.5 137.5 695.5 136.5 694.5 136.5 693.5 135.5 682.5 135.5 681.5 136.5 679.5 136.5 678.5 137.5 677.5 137.5 672.5 142.5 672.5 143.5 671.5 144.5 671.5 145.5 670.5 146.5 670.5 147.5 669.5 148.5 669.5 150.5 668.5 151.5 668.5 154.5 667.5 155.5 667.5 157.5 666.5 158.5 666.5 161.5 665.5 162.5 665.5 165.5 664.5 166.5 664.5 169.5 663.5 170.5 663.5 173.5 662.5 174.5 662.5 177.5 661.5 178.5 661.5 182.5 660.5 183.5 660.5 186.5 659.5 187.5 659.5 191.5 658.5 192.5 658.5 195.5 657.5 196.5 657.5 200.5 656.5 201.5 656.5 204.5 655.5 205.5 655.5 208.5 654.5 209.5 654.5 212.5 653.5 213.5 653.5 215.5 652.5 216.5 652.5 218.5 651.5 219.5 651.5 220.5 650.5 221.5 650.5 222.5 649.5 223.5 649.5 224.5 647.5 226.5 647.5 227.5 646.5 228.5 644.5 228.5 643.5 227.5 643.5 226.5 641.5 224.5 641.5 223.5 640.5 222.5 640.5 221.5 639.5 220.5 639.5 218.5 638.5 217.5 638.5 215.5 637.5 214.5 637.5 213.5 636.5 212.5 636.5 210.5 635.5 209.5 635.5 207.5 634.5 206.5 634.5 204.5 633.5 203.5 633.5 200.5 632.5 199.5 632.5 197.5 631.5 196.5 631.5 194.5 630.5 193.5 630.5 190.5 629.5 189.5 629.5 187.5 628.5 186.5 628.5 183.5 627.5 182.5 627.5 179.5 626.5 178.5 626.5 175.5 625.5 174.5 625.5 171.5 624.5 170.5 624.5 167.5 623.5 166.5 623.5 162.5 622.5 161.5 622.5 158.5 621.5 157.5 621.5 154.5 620.5 153.5 620.5 151.5 619.5 150.5 619.5 148.5 618.5 147.5 618.5 146.5 617.5 145.5 617.5 144.5 611.5 138.5 610.5 138.5 609.5 137.5 608.5 137.5 607.5 136.5 605.5 136.5 604.5 135.5 594.5 135.5"/>
  <polygon class="cls-7" points="498.5 133.5 497.5 134.5 492.5 134.5 491.5 135.5 488.5 135.5 487.5 136.5 485.5 136.5 484.5 137.5 482.5 137.5 481.5 138.5 480.5 138.5 479.5 139.5 478.5 139.5 477.5 140.5 476.5 140.5 475.5 141.5 474.5 141.5 473.5 142.5 472.5 142.5 470.5 144.5 469.5 144.5 467.5 146.5 466.5 146.5 453.5 159.5 453.5 160.5 451.5 162.5 451.5 163.5 449.5 165.5 449.5 166.5 447.5 168.5 447.5 169.5 446.5 170.5 446.5 171.5 445.5 172.5 445.5 174.5 444.5 175.5 444.5 176.5 443.5 177.5 443.5 179.5 442.5 180.5 442.5 182.5 441.5 183.5 441.5 186.5 440.5 187.5 440.5 191.5 439.5 192.5 439.5 200.5 438.5 201.5 438.5 214.5 439.5 215.5 439.5 222.5 440.5 223.5 440.5 227.5 441.5 228.5 441.5 231.5 442.5 232.5 442.5 234.5 443.5 235.5 443.5 237.5 444.5 238.5 444.5 239.5 445.5 240.5 445.5 242.5 446.5 243.5 446.5 244.5 448.5 246.5 448.5 247.5 449.5 248.5 449.5 249.5 451.5 251.5 451.5 252.5 453.5 254.5 453.5 255.5 462.5 264.5 463.5 264.5 466.5 267.5 467.5 267.5 469.5 269.5 470.5 269.5 472.5 271.5 473.5 271.5 474.5 272.5 475.5 272.5 476.5 273.5 477.5 273.5 478.5 274.5 480.5 274.5 481.5 275.5 483.5 275.5 484.5 276.5 486.5 276.5 487.5 277.5 489.5 277.5 490.5 278.5 493.5 278.5 494.5 279.5 499.5 279.5 500.5 280.5 516.5 280.5 517.5 279.5 523.5 279.5 524.5 278.5 529.5 278.5 530.5 277.5 532.5 277.5 533.5 276.5 536.5 276.5 537.5 275.5 538.5 275.5 539.5 274.5 541.5 274.5 542.5 273.5 543.5 273.5 544.5 272.5 545.5 272.5 546.5 271.5 547.5 271.5 548.5 270.5 549.5 270.5 550.5 269.5 551.5 269.5 554.5 266.5 555.5 266.5 560.5 261.5 560.5 260.5 562.5 258.5 562.5 257.5 563.5 256.5 563.5 254.5 564.5 253.5 564.5 244.5 563.5 243.5 563.5 241.5 561.5 239.5 561.5 238.5 558.5 235.5 557.5 235.5 555.5 233.5 552.5 233.5 551.5 232.5 546.5 232.5 545.5 233.5 543.5 233.5 542.5 234.5 541.5 234.5 540.5 235.5 539.5 235.5 537.5 237.5 536.5 237.5 534.5 239.5 533.5 239.5 531.5 241.5 530.5 241.5 529.5 242.5 528.5 242.5 527.5 243.5 526.5 243.5 525.5 244.5 523.5 244.5 522.5 245.5 519.5 245.5 518.5 246.5 502.5 246.5 501.5 245.5 499.5 245.5 498.5 244.5 496.5 244.5 495.5 243.5 494.5 243.5 493.5 242.5 492.5 242.5 483.5 233.5 483.5 232.5 481.5 230.5 481.5 229.5 480.5 228.5 480.5 226.5 479.5 225.5 479.5 221.5 478.5 220.5 480.5 218.5 558.5 218.5 559.5 217.5 561.5 217.5 563.5 215.5 564.5 215.5 566.5 213.5 566.5 212.5 568.5 210.5 568.5 208.5 569.5 207.5 569.5 204.5 570.5 203.5 570.5 191.5 569.5 190.5 569.5 184.5 568.5 183.5 568.5 180.5 567.5 179.5 567.5 177.5 566.5 176.5 566.5 174.5 565.5 173.5 565.5 171.5 564.5 170.5 564.5 169.5 563.5 168.5 563.5 167.5 562.5 166.5 562.5 165.5 561.5 164.5 561.5 163.5 559.5 161.5 559.5 160.5 557.5 158.5 557.5 157.5 545.5 145.5 544.5 145.5 542.5 143.5 541.5 143.5 540.5 142.5 539.5 142.5 537.5 140.5 536.5 140.5 535.5 139.5 534.5 139.5 533.5 138.5 531.5 138.5 530.5 137.5 529.5 137.5 528.5 136.5 526.5 136.5 525.5 135.5 522.5 135.5 521.5 134.5 517.5 134.5 516.5 133.5 498.5 133.5"/>
  <ellipse class="cls-4" cx="494.18" cy="179.38" rx="16" ry="21"/>
  <ellipse class="cls-4" cx="526.18" cy="179.38" rx="16" ry="21"/>
  <ellipse class="cls-1" cx="494.18" cy="179.38" rx="6.75" ry="10.5"/>
  <ellipse class="cls-1" cx="526.18" cy="179.38" rx="6.75" ry="10.5"/>
  <polygon class="cls-3" points="369.5 133.5 368.5 134.5 358.5 134.5 357.5 135.5 353.5 135.5 352.5 136.5 350.5 136.5 349.5 137.5 347.5 137.5 346.5 138.5 344.5 138.5 343.5 139.5 342.5 139.5 341.5 140.5 340.5 140.5 339.5 141.5 338.5 141.5 336.5 143.5 335.5 143.5 332.5 146.5 331.5 146.5 326.5 151.5 326.5 152.5 323.5 155.5 323.5 156.5 322.5 157.5 322.5 158.5 321.5 159.5 321.5 160.5 320.5 161.5 320.5 162.5 319.5 163.5 319.5 165.5 318.5 166.5 318.5 168.5 317.5 169.5 317.5 184.5 318.5 185.5 318.5 189.5 319.5 190.5 319.5 192.5 320.5 193.5 320.5 194.5 321.5 195.5 321.5 196.5 322.5 197.5 322.5 198.5 333.5 209.5 334.5 209.5 336.5 211.5 337.5 211.5 338.5 212.5 339.5 212.5 340.5 213.5 341.5 213.5 342.5 214.5 343.5 214.5 344.5 215.5 345.5 215.5 346.5 216.5 348.5 216.5 349.5 217.5 350.5 217.5 351.5 218.5 353.5 218.5 354.5 219.5 356.5 219.5 357.5 220.5 359.5 220.5 360.5 221.5 363.5 221.5 364.5 222.5 366.5 222.5 367.5 223.5 369.5 223.5 370.5 224.5 373.5 224.5 374.5 225.5 375.5 225.5 376.5 226.5 377.5 226.5 378.5 227.5 379.5 227.5 380.5 228.5 381.5 228.5 384.5 231.5 384.5 232.5 385.5 233.5 385.5 236.5 384.5 237.5 384.5 238.5 379.5 243.5 378.5 243.5 377.5 244.5 375.5 244.5 374.5 245.5 363.5 245.5 362.5 244.5 359.5 244.5 358.5 243.5 356.5 243.5 355.5 242.5 353.5 242.5 352.5 241.5 351.5 241.5 350.5 240.5 349.5 240.5 348.5 239.5 347.5 239.5 345.5 237.5 344.5 237.5 343.5 236.5 342.5 236.5 341.5 235.5 340.5 235.5 339.5 234.5 338.5 234.5 337.5 233.5 335.5 233.5 334.5 232.5 327.5 232.5 326.5 233.5 324.5 233.5 323.5 234.5 322.5 234.5 321.5 235.5 320.5 235.5 315.5 240.5 315.5 241.5 314.5 242.5 314.5 243.5 313.5 244.5 313.5 248.5 312.5 249.5 312.5 250.5 313.5 251.5 313.5 255.5 314.5 256.5 314.5 257.5 315.5 258.5 315.5 259.5 317.5 261.5 317.5 262.5 322.5 267.5 323.5 267.5 325.5 269.5 326.5 269.5 328.5 271.5 329.5 271.5 330.5 272.5 331.5 272.5 332.5 273.5 333.5 273.5 334.5 274.5 336.5 274.5 337.5 275.5 339.5 275.5 340.5 276.5 342.5 276.5 343.5 277.5 345.5 277.5 346.5 278.5 350.5 278.5 351.5 279.5 356.5 279.5 357.5 280.5 379.5 280.5 380.5 279.5 385.5 279.5 386.5 278.5 389.5 278.5 390.5 277.5 392.5 277.5 393.5 276.5 394.5 276.5 395.5 275.5 397.5 275.5 398.5 274.5 399.5 274.5 400.5 273.5 401.5 273.5 403.5 271.5 404.5 271.5 405.5 270.5 406.5 270.5 410.5 266.5 411.5 266.5 414.5 263.5 414.5 262.5 417.5 259.5 417.5 258.5 419.5 256.5 419.5 255.5 421.5 253.5 421.5 252.5 422.5 251.5 422.5 249.5 423.5 248.5 423.5 247.5 424.5 246.5 424.5 243.5 425.5 242.5 425.5 227.5 424.5 226.5 424.5 223.5 423.5 222.5 423.5 220.5 422.5 219.5 422.5 218.5 421.5 217.5 421.5 216.5 420.5 215.5 420.5 214.5 417.5 211.5 417.5 210.5 412.5 205.5 411.5 205.5 409.5 203.5 408.5 203.5 407.5 202.5 406.5 202.5 405.5 201.5 404.5 201.5 403.5 200.5 402.5 200.5 401.5 199.5 400.5 199.5 399.5 198.5 397.5 198.5 396.5 197.5 394.5 197.5 393.5 196.5 391.5 196.5 390.5 195.5 388.5 195.5 387.5 194.5 385.5 194.5 384.5 193.5 382.5 193.5 381.5 192.5 379.5 192.5 378.5 191.5 376.5 191.5 375.5 190.5 373.5 190.5 372.5 189.5 370.5 189.5 369.5 188.5 368.5 188.5 367.5 187.5 366.5 187.5 365.5 186.5 364.5 186.5 363.5 185.5 362.5 185.5 358.5 181.5 358.5 180.5 357.5 179.5 357.5 175.5 362.5 170.5 363.5 170.5 364.5 169.5 366.5 169.5 367.5 168.5 376.5 168.5 377.5 169.5 380.5 169.5 381.5 170.5 383.5 170.5 384.5 171.5 385.5 171.5 386.5 172.5 387.5 172.5 388.5 173.5 389.5 173.5 391.5 175.5 392.5 175.5 394.5 177.5 395.5 177.5 396.5 178.5 397.5 178.5 398.5 179.5 400.5 179.5 401.5 180.5 410.5 180.5 411.5 179.5 412.5 179.5 413.5 178.5 414.5 178.5 419.5 173.5 419.5 172.5 420.5 171.5 420.5 170.5 421.5 169.5 421.5 166.5 422.5 165.5 422.5 162.5 421.5 161.5 421.5 158.5 420.5 157.5 420.5 155.5 419.5 154.5 419.5 153.5 416.5 150.5 416.5 149.5 412.5 145.5 411.5 145.5 408.5 142.5 407.5 142.5 406.5 141.5 405.5 141.5 404.5 140.5 403.5 140.5 402.5 139.5 400.5 139.5 399.5 138.5 398.5 138.5 397.5 137.5 394.5 137.5 393.5 136.5 390.5 136.5 389.5 135.5 385.5 135.5 384.5 134.5 374.5 134.5 373.5 133.5 369.5 133.5"/>
  <polygon class="cls-2" points="249.5 61.5 249.5 62.5 248.5 63.5 248.5 65.5 247.5 66.5 247.5 68.5 246.5 69.5 246.5 70.5 245.5 71.5 245.5 72.5 239.5 78.5 238.5 78.5 237.5 79.5 236.5 79.5 235.5 80.5 234.5 80.5 231.5 83.5 231.5 84.5 232.5 85.5 232.5 86.5 233.5 86.5 235.5 88.5 237.5 88.5 238.5 89.5 239.5 89.5 244.5 94.5 244.5 95.5 246.5 97.5 246.5 98.5 247.5 99.5 247.5 100.5 248.5 101.5 248.5 104.5 250.5 106.5 252.5 106.5 253.5 105.5 253.5 104.5 254.5 103.5 254.5 101.5 255.5 100.5 255.5 98.5 257.5 96.5 257.5 95.5 263.5 89.5 264.5 89.5 265.5 88.5 266.5 88.5 267.5 87.5 269.5 87.5 270.5 86.5 270.5 82.5 268.5 80.5 266.5 80.5 265.5 79.5 264.5 79.5 256.5 71.5 256.5 69.5 255.5 68.5 255.5 66.5 254.5 65.5 254.5 62.5 253.5 61.5 249.5 61.5"/>
  <polygon class="cls-6" points="697.5 31.5 696.5 32.5 695.5 32.5 695.5 33.5 694.5 34.5 694.5 37.5 693.5 38.5 693.5 42.5 692.5 43.5 692.5 45.5 691.5 46.5 691.5 47.5 690.5 48.5 690.5 49.5 689.5 50.5 689.5 51.5 681.5 59.5 680.5 59.5 679.5 60.5 678.5 60.5 677.5 61.5 676.5 61.5 675.5 62.5 673.5 62.5 671.5 64.5 671.5 65.5 670.5 66.5 670.5 67.5 671.5 68.5 671.5 69.5 672.5 69.5 673.5 70.5 674.5 70.5 675.5 71.5 676.5 71.5 677.5 72.5 678.5 72.5 679.5 73.5 680.5 73.5 682.5 75.5 683.5 75.5 687.5 79.5 687.5 80.5 689.5 82.5 689.5 83.5 690.5 84.5 690.5 85.5 691.5 86.5 691.5 87.5 692.5 88.5 692.5 90.5 693.5 91.5 693.5 94.5 694.5 95.5 694.5 97.5 697.5 100.5 699.5 100.5 702.5 97.5 702.5 94.5 703.5 93.5 703.5 90.5 704.5 89.5 704.5 87.5 705.5 86.5 705.5 85.5 706.5 84.5 706.5 83.5 707.5 82.5 707.5 81.5 710.5 78.5 710.5 77.5 711.5 76.5 712.5 76.5 715.5 73.5 716.5 73.5 717.5 72.5 718.5 72.5 719.5 71.5 721.5 71.5 722.5 70.5 723.5 70.5 724.5 69.5 724.5 68.5 725.5 67.5 725.5 64.5 722.5 61.5 720.5 61.5 719.5 60.5 718.5 60.5 717.5 59.5 716.5 59.5 714.5 57.5 713.5 57.5 709.5 53.5 709.5 52.5 707.5 50.5 707.5 49.5 706.5 48.5 706.5 47.5 705.5 46.5 705.5 44.5 704.5 43.5 704.5 41.5 703.5 40.5 703.5 36.5 702.5 35.5 702.5 34.5 701.5 33.5 701.5 32.5 700.5 32.5 699.5 31.5 697.5 31.5"/>
  <polygon class="cls-8" points="176.5 2.5 175.5 3.5 174.5 3.5 174.5 4.5 173.5 5.5 173.5 6.5 172.5 7.5 172.5 10.5 171.5 11.5 171.5 15.5 170.5 16.5 170.5 18.5 169.5 19.5 169.5 20.5 168.5 21.5 168.5 22.5 166.5 24.5 166.5 25.5 162.5 29.5 162.5 30.5 160.5 32.5 159.5 32.5 156.5 35.5 155.5 35.5 154.5 36.5 153.5 36.5 152.5 37.5 151.5 37.5 150.5 38.5 148.5 38.5 147.5 39.5 146.5 39.5 145.5 40.5 144.5 40.5 143.5 41.5 143.5 42.5 142.5 43.5 142.5 45.5 143.5 46.5 143.5 47.5 144.5 48.5 144.5 49.5 145.5 49.5 146.5 50.5 147.5 50.5 148.5 51.5 150.5 51.5 151.5 52.5 153.5 52.5 155.5 54.5 156.5 54.5 158.5 56.5 159.5 56.5 165.5 62.5 165.5 63.5 167.5 65.5 167.5 66.5 169.5 68.5 169.5 70.5 170.5 71.5 170.5 72.5 171.5 73.5 171.5 77.5 172.5 78.5 172.5 82.5 173.5 83.5 173.5 84.5 175.5 86.5 177.5 86.5 178.5 87.5 179.5 86.5 180.5 86.5 182.5 84.5 182.5 83.5 183.5 82.5 183.5 76.5 184.5 75.5 184.5 73.5 185.5 72.5 185.5 70.5 186.5 69.5 186.5 68.5 187.5 67.5 187.5 66.5 188.5 65.5 188.5 64.5 196.5 56.5 197.5 56.5 200.5 53.5 201.5 53.5 202.5 52.5 203.5 52.5 204.5 51.5 206.5 51.5 207.5 50.5 208.5 50.5 209.5 49.5 210.5 49.5 210.5 48.5 212.5 46.5 212.5 42.5 209.5 39.5 207.5 39.5 206.5 38.5 205.5 38.5 204.5 37.5 203.5 37.5 202.5 36.5 201.5 36.5 200.5 35.5 199.5 35.5 195.5 31.5 194.5 31.5 193.5 30.5 193.5 29.5 189.5 25.5 189.5 24.5 187.5 22.5 187.5 21.5 186.5 20.5 186.5 18.5 185.5 17.5 185.5 15.5 184.5 14.5 184.5 10.5 183.5 9.5 183.5 6.5 182.5 5.5 182.5 4.5 180.5 2.5 176.5 2.5"/>
  <path class="cls-7" d="M143.5,204.5v-12l-1-1v-4l-1-1v-3l-1-1v-3l-1-1v-2l-1-1v-1l-1-1v-2l-1-1v-1l-1-1v-1l-1-1v-1l-2-2v-1l-2-2v-1l-3-3v-1l-8-8h-1l-3-3h-1l-2-2h-1l-2-2h-1l-1-1h-1l-1-1h-2l-1-1h-2l-1-1h-2l-1-1h-3l-1-1h-18l-1,1h-4l-1,1h-2l-1,1h-2l-1,1h-2l-1,1h-1l-1,1h-1l-2,2h-1l-1,1h-1l-4,4-1-1v-58l-1-1v-3l-1-1v-2l-1-1v-1l-2-2v-1l-3-3h-1l-2-2h-1l-1-1h-2l-1-1h-12l-1,1h-2l-1,1h-1l-1,1h-1l-6,6v1l-1,1v1l-1,1v3l-1,1v175l1,1v2l1,1v2l2,2v1l6,6h1l1,1h1l1,1h3l1,1h6l1-1h2l1-1h1l1-1h1l6-6v-1l1-1v-1l1-1h1l3,3h1l2,2h1l1,1h1l1,1h1l1,1h1l1,1h1l1,1h2l1,1h2l1,1h4l1,1h6l1,1h7l1-1h7l1-1h3l1-1h2l1-1h2l1-1h1l1-1h1l1-1h1l1-1h1l1-1h1l2-2h1l2-2h1l11-11v-1l2-2v-1l2-2v-1l1-1v-1l1-1v-1l1-1v-1l1-1v-1l1-1v-1l1-1v-2l1-1v-2l1-1v-2l1-1v-4l1-1v-4l1-1v-13l1-1-1-1ZM119.2,208.52l-.54.61v4.87l-.54.61v3.04l-.54.61v1.83l-.54.61v1.22l-.54.61v1.22l-.54.61v.61l-.54.61v1.22l-.54.61v.61l-.54.61v.61l-.54.61v.61l-1.07,1.22v.61l-.54.61v.61l-1.61,1.83v.61l-5.37,6.08h-.54l-1.61,1.83h-.54l-1.07,1.22h-.54l-.54.61h-.54l-.54.61h-.54l-.54.61h-.54l-.54.61h-.54l-.54.61h-.54l-.54.61h-.54l-.54.61h-1.61l-.54.61h-1.07l-.54.61h-2.15l-.54.61h-4.29l-.54.61h-3.76l-.54-.61h-4.29l-.54-.61h-2.15l-.54-.61h-1.61l-.54-.61h-1.07l-.54-.61h-1.07l-.54-.61h-1.07l-.54-.61h-.54l-.54-.61h-.54l-.54-.61h-.54l-.54-.61h-.54l-1.07-1.22h-.54l-1.07-1.22h-.54l-1.61-1.83h-.54l-4.29-4.87v-.61l-1.61-1.83v-.61l-1.07-1.22v-.61l-.54-.61v-.61l-1.07-1.22v-.61l-.54-.61v-1.22l-.54-.61v-.61l-.54-.61v-1.22l-.54-.61v-1.22l-.54-.61v-1.22l-.54-.61v-2.43l-.54-.61v-3.04l-.54-.61v-12.78l.54-.61v-3.04l.54-.61v-1.83l.54-.61v-1.83l.54-.61v-.61l.54-.61v-1.22l.54-.61v-1.22l.54-.61v-.61l.54-.61v-.61l1.07-1.22v-.61l.54-.61v-.61l1.07-1.22v-.61l1.61-1.83v-.61l3.76-4.26h.54l2.15-2.43h.54l1.07-1.22h.54l1.07-1.22h.54l.54-.61h.54l.54-.61h.54l.54-.61h.54l.54-.61h1.07l.54-.61h1.07l.54-.61h1.61l.54-.61h2.15l.54-.61h3.22l.54-.61h9.66l.54.61h2.68l.54.61h1.61l.54.61h1.61l.54.61h1.07l.54.61h.54l.54.61h.54l.54.61h.54l.54.61h.54l.54.61h.54l.54.61h.54l1.07,1.22h.54l2.15,2.43h.54l4.29,4.87v.61l1.61,1.83v.61l1.07,1.22v.61l1.07,1.22v.61l.54.61v.61l.54.61v.61l.54.61v.61l.54.61v1.22l.54.61v.61l.54.61v1.83l.54.61v1.83l.54.61v2.43l.54.61v7.3l.54.61v1.83Z"/>
  <path class="cls-5" d="M301.5,205.5v-12l-1-1v-4l-1-1v-3l-1-1v-3l-1-1v-1l-1-1v-2l-1-1v-1l-1-1v-1l-1-1v-1l-1-1v-1l-2-2v-1l-2-2v-1l-3-3v-1l-8-8h-1l-4-4h-1l-2-2h-1l-1-1h-1l-1-1h-1l-1-1h-1l-1-1h-1l-1-1h-1l-1-1h-2l-1-1h-3l-1-1h-3l-1-1h-5l-1-1h-18l-1,1h-6l-1,1h-4l-1,1h-3l-1,1h-2l-1,1h-2l-1,1h-1l-1,1h-1l-1,1h-1l-1,1h-1l-2,2h-1l-2,2h-1l-4,4h-1l-7,7v1l-3,3v1l-2,2v1l-1,1v1l-2,2v1l-1,1v1l-1,1v2l-1,1v2l-1,1v1l-1,1v3l-1,1v3l-1,1v5l-1,1v21l1,1v5l1,1v4l1,1v2l1,1v2l1,1v2l1,1v1l1,1v2l1,1v1l2,2v1l1,1v1l2,2v1l3,3v1l8,8h1l3,3h1l2,2h1l2,2h1l1,1h1l1,1h1l1,1h1l1,1h2l1,1h2l1,1h2l1,1h3l1,1h4l1,1h8l1,1h7l1-1h8l1-1h4l1-1h2l1-1h3l1-1h1l1-1h1l1-1h1l1-1h1l1-1h1l1-1h1l1-1h1l2-2h1l3-3h1l10-10v-1l3-3v-1l1-1v-1l2-2v-1l1-1v-1l1-1v-1l1-1v-2l1-1v-1l1-1v-2l1-1v-2l1-1v-3l1-1v-5l1-1v-8l1-1v-3l-1-1ZM269.15,208.52l-.54.61v4.87l-.54.61v3.04l-.54.61v1.83l-.54.61v1.22l-.54.61v1.22l-.54.61v.61l-.54.61v1.22l-.54.61v.61l-.54.61v.61l-.54.61v.61l-1.07,1.22v.61l-.54.61v.61l-1.61,1.83v.61l-5.37,6.08h-.54l-1.61,1.83h-.54l-1.07,1.22h-.54l-.54.61h-.54l-.54.61h-.54l-.54.61h-.54l-.54.61h-.54l-.54.61h-.54l-.54.61h-.54l-.54.61h-1.61l-.54.61h-1.07l-.54.61h-2.15l-.54.61h-4.29l-.54.61h-3.76l-.54-.61h-4.29l-.54-.61h-2.15l-.54-.61h-1.61l-.54-.61h-1.07l-.54-.61h-1.07l-.54-.61h-1.07l-.54-.61h-.54l-.54-.61h-.54l-.54-.61h-.54l-.54-.61h-.54l-1.07-1.22h-.54l-1.07-1.22h-.54l-1.61-1.83h-.54l-4.29-4.87v-.61l-1.61-1.83v-.61l-1.07-1.22v-.61l-.54-.61v-.61l-1.07-1.22v-.61l-.54-.61v-1.22l-.54-.61v-.61l-.54-.61v-1.22l-.54-.61v-1.22l-.54-.61v-1.22l-.54-.61v-2.43l-.54-.61v-3.04l-.54-.61v-12.78l.54-.61v-3.04l.54-.61v-1.83l.54-.61v-1.83l.54-.61v-.61l.54-.61v-1.22l.54-.61v-1.22l.54-.61v-.61l.54-.61v-.61l1.07-1.22v-.61l.54-.61v-.61l1.07-1.22v-.61l1.61-1.83v-.61l3.76-4.26h.54l2.15-2.43h.54l1.07-1.22h.54l1.07-1.22h.54l.54-.61h.54l.54-.61h.54l.54-.61h.54l.54-.61h1.07l.54-.61h1.07l.54-.61h1.61l.54-.61h2.15l.54-.61h3.22l.54-.61h9.66l.54.61h2.68l.54.61h1.61l.54.61h1.61l.54.61h1.07l.54.61h.54l.54.61h.54l.54.61h.54l.54.61h.54l.54.61h.54l.54.61h.54l1.07,1.22h.54l2.15,2.43h.54l4.29,4.87v.61l1.61,1.83v.61l1.07,1.22v.61l1.07,1.22v.61l.54.61v.61l.54.61v.61l.54.61v.61l.54.61v1.22l.54.61v.61l.54.61v1.83l.54.61v1.83l.54.61v2.43l.54.61v7.3l.54.61v1.83Z"/>
  <path class="cls-3" d="M850.5,197.5v-5l-1-1v-4l-1-1v-2l-1-1v-2l-1-1v-2l-1-1v-1l-1-1v-2l-2-2v-1l-1-1v-1l-1-1v-1l-2-2v-1l-3-3v-1l-10-10h-1l-3-3h-1l-2-2h-1l-2-2h-1l-1-1h-1l-1-1h-2l-1-1h-1l-1-1h-2l-1-1h-2l-1-1h-3l-1-1h-4l-1-1h-20l-1,1h-4l-1,1h-3l-1,1h-2l-1,1h-2l-1,1h-1l-1,1h-1l-1,1h-1l-1,1h-1l-1,1h-1l-2,2h-1l-2,2h-1l-4,4h-1l-6,6v1l-4,4v1l-2,2v1l-2,2v1l-1,1v1l-1,1v1l-1,1v1l-1,1v1l-1,1v2l-1,1v2l-1,1v2l-1,1v3l-1,1v5l-1,1v23l1,1v4l1,1v3l1,1v2l1,1v2l1,1v1l1,1v2l1,1v1l1,1v1l2,2v1l2,2v1l3,3v1l11,11h1l3,3h1l2,2h1l1,1h1l1,1h1l1,1h1l1,1h1l1,1h1l1,1h3l1,1h2l1,1h4l1,1h6l1,1h10l1-1h7l1-1h3l1-1h3l1-1h2l1-1h2l1-1h1l1-1h2l1-1h1l1-1h1l2-2h1l2-2h1l2-2h1l12-12v-1l2-2v-1l2-2v-1l1-1v-1l1-1v-1l1-1v-1l1-1v-1l1-1v-2l1-1v-1l1-1v-3l1-1v-3l1-1v-5l1-1v-20l-1-1ZM820.36,209.52l-.54.61v4.87l-.54.61v3.04l-.54.61v1.83l-.54.61v1.22l-.54.61v1.22l-.54.61v.61l-.54.61v1.22l-.54.61v.61l-.54.61v.61l-.54.61v.61l-1.07,1.22v.61l-.54.61v.61l-1.61,1.83v.61l-5.37,6.08h-.54l-1.61,1.83h-.54l-1.07,1.22h-.54l-.54.61h-.54l-.54.61h-.54l-.54.61h-.54l-.54.61h-.54l-.54.61h-.54l-.54.61h-.54l-.54.61h-1.61l-.54.61h-1.07l-.54.61h-2.15l-.54.61h-4.29l-.54.61h-3.76l-.54-.61h-4.29l-.54-.61h-2.15l-.54-.61h-1.61l-.54-.61h-1.07l-.54-.61h-1.07l-.54-.61h-1.07l-.54-.61h-.54l-.54-.61h-.54l-.54-.61h-.54l-.54-.61h-.54l-1.07-1.22h-.54l-1.07-1.22h-.54l-1.61-1.83h-.54l-4.29-4.87v-.61l-1.61-1.83v-.61l-1.07-1.22v-.61l-.54-.61v-.61l-1.07-1.22v-.61l-.54-.61v-1.22l-.54-.61v-.61l-.54-.61v-1.22l-.54-.61v-1.22l-.54-.61v-1.22l-.54-.61v-2.43l-.54-.61v-3.04l-.54-.61v-12.78l.54-.61v-3.04l.54-.61v-1.83l.54-.61v-1.83l.54-.61v-.61l.54-.61v-1.22l.54-.61v-1.22l.54-.61v-.61l.54-.61v-.61l1.07-1.22v-.61l.54-.61v-.61l1.07-1.22v-.61l1.61-1.83v-.61l3.76-4.26h.54l2.15-2.43h.54l1.07-1.22h.54l1.07-1.22h.54l.54-.61h.54l.54-.61h.54l.54-.61h.54l.54-.61h1.07l.54-.61h1.07l.54-.61h1.61l.54-.61h2.15l.54-.61h3.22l.54-.61h9.66l.54.61h2.68l.54.61h1.61l.54.61h1.61l.54.61h1.07l.54.61h.54l.54.61h.54l.54.61h.54l.54.61h.54l.54.61h.54l.54.61h.54l1.07,1.22h.54l2.15,2.43h.54l4.29,4.87v.61l1.61,1.83v.61l1.07,1.22v.61l1.07,1.22v.61l.54.61v.61l.54.61v.61l.54.61v.61l.54.61v1.22l.54.61v.61l.54.61v1.83l.54.61v1.83l.54.61v2.43l.54.61v7.3l.54.61v1.83Z"/>
</svg>