<?xml version="1.0" encoding="UTF-8"?>
<svg id="_레이어_1" data-name="레이어_1" xmlns="http://www.w3.org/2000/svg" viewBox="0 0 587.57 588.04">
  <defs>
    <style>
      .cls-1 {
        fill: #fff;
        stroke: #fff;
        stroke-miterlimit: 10;
      }
    </style>
  </defs>
  <path class="cls-1" d="M141.16,183.82h305.16c-1.23-1.54-2.08-2.65-2.99-3.71-42.05-49.52-84.08-99.05-126.17-148.54-4.58-5.39-6.21-11.35-4.23-18.11,1.91-6.5,6.34-10.91,12.88-12.36,7.13-1.58,13.66.05,18.63,5.9,8.9,10.47,17.79,20.95,26.69,31.42,40.35,47.52,80.72,95.02,121.02,142.59,1.78,2.1,3.54,2.99,6.33,2.95,12.99-.16,25.98-.1,38.96-.06,24.8.08,45.1,16.63,48.78,41.1,1.53,10.16.46,20.7.61,31.07.1,7.16-1.76,13.86-4.97,20.17-6.32,12.43-16.19,20.76-29.53,24.81-2.42.73-3.59,1.64-4.03,4.4-2.72,17.14-5.67,34.24-8.69,51.33-.56,3.16.11,5.01,2.78,7.14,28.5,22.75,43.44,52.29,44.48,88.96,1.41,49.75-32.19,98.91-85.67,112.82-1.87.48-3.67,1.5-5.28,2.6-3.09,2.11-6.03,4.44-9.02,6.71-11.11,8.43-23.51,12.54-37.59,12.52-92.54-.14-185.09-.07-277.63-.07-8.74,0-17.5-.32-26.22.06-26.48,1.15-54.46-19.52-60.21-49.09-9.62-49.5-19.42-98.96-29.14-148.45-5.56-28.29-11.1-56.59-16.62-84.89-.39-1.98-1.15-3.08-3.39-3.72C11.81,294.49-.3,272.38.54,254.15c.33-7.11.31-14.26,0-21.37-.95-22.69,17.84-48.5,48.74-48.85,13.24-.15,26.48-.11,39.71.04,2.8.03,4.55-.89,6.32-2.98,47.17-55.66,94.41-111.26,141.63-166.88,1.86-2.19,3.7-4.4,5.58-6.57,7.13-8.23,18.58-9.41,26.38-2.73,7.88,6.74,8.64,18.12,1.55,26.47-42.1,49.64-84.25,99.24-126.38,148.86-.86,1.01-1.65,2.06-2.93,3.67ZM76.48,303.38c3.77,19.16,7.46,37.89,11.14,56.62,11.11,56.46,22.17,112.94,33.34,169.39,2.85,14.4,11.91,21.62,26.63,21.62,85.93,0,171.87,0,257.8,0,1.19,0,2.39-.11,4.49-.22-24.01-16.44-39.98-37.85-47.61-65.09-7.68-27.41-5.42-54.23,6.65-80,10.49-22.4,26.71-39.71,48.45-51.53,27.58-14.99,56.69-17.98,87.28-9.73,2.31-13.8,4.56-27.29,6.86-41.06H76.48ZM293.52,266.45c81.05,0,162.11,0,243.16,0,8.96,0,13.65-4.62,13.75-13.56.07-5.75.02-11.5.01-17.25-.02-10.59-4.45-15.01-15.04-15.01-92.29,0-184.59,0-276.88,0-69.19,0-138.38,0-207.57,0-9.06,0-13.86,4.77-13.93,13.85-.05,5.62.26,11.27-.07,16.87-.55,9.22,4.67,15.26,15.29,15.23,80.43-.24,160.86-.13,241.29-.13ZM550.41,454.63c.02-42.97-34.98-78.01-77.91-78.02-42.96,0-77.9,34.99-77.87,78.01.03,43.11,34.84,77.97,77.86,77.98,42.97.01,77.9-34.95,77.92-77.97Z"/>
  <path class="cls-1" d="M193.01,505.02c-9.16.05-16.84-6.29-18.29-15.57-4.87-31.21-9.61-62.43-14.39-93.65-1.32-8.64-2.79-17.26-3.86-25.93-1.29-10.43,5.48-19.08,15.72-20.56,9.72-1.41,18.83,5.3,20.43,15.47,5.06,32.19,9.97,64.4,14.93,96.6,1.14,7.4,2.28,14.81,3.44,22.21,1.77,11.3-6.66,21.37-17.98,21.43Z"/>
  <path class="cls-1" d="M312.04,427.19c0,19.48.07,38.97-.03,58.45-.06,12.05-8.46,20.07-19.87,19.3-8.37-.56-15.52-7.39-16.5-15.75-.06-.5-.14-.99-.14-1.49-.01-40.34-.13-80.68.07-121.02.04-9.42,7.06-16.33,16.39-17.44,9.38-1.11,18.59,6.01,19.8,15.39.25,1.97.28,3.99.28,5.98.02,18.86.01,37.72,0,56.58Z"/>
  <path class="cls-1" d="M454.14,472.81c-5.46,0-10.57.31-15.61-.07-7.59-.58-14-6.25-15.83-13.38-1.91-7.45.56-15.32,7.1-19.41,3.21-2.01,7.33-2.94,11.16-3.48,4.14-.58,8.43-.13,13.2-.13,0-5.01-.12-9.71.03-14.39.25-7.62,5.26-14.32,12.31-16.76,7.08-2.45,14.65-.42,19.74,5.31,3.02,3.41,4.54,7.42,4.57,11.97.03,4.47,0,8.94,0,13.96,5.3,0,10.27-.22,15.21.05,9.05.5,16.2,7.86,16.89,17.05.64,8.47-5.57,17.23-13.98,18.81-4.36.82-8.94.49-13.43.66-1.36.05-2.73,0-4.69,0,0,4.77.07,9.33-.02,13.89-.14,7.82-5.06,14.62-12.28,17.15-7.31,2.56-15.57.56-20.1-5.93-2.29-3.29-3.48-7.64-4.14-11.69-.69-4.23-.15-8.66-.15-13.62Z"/>
</svg>